<?xml version="1.0" encoding="UTF-8"?>
<svg width="16px" height="14px" viewBox="0 0 16 14" version="1.1" xmlns="http://www.w3.org/2000/svg" xmlns:xlink="http://www.w3.org/1999/xlink">
    <!-- Generator: Sketch 61 (89581) - https://sketch.com -->
    <title>icn_aulas</title>
    <desc>Created with Sketch.</desc>
    <g id="Page-1" stroke="none" stroke-width="1" fill="none" fill-rule="evenodd">
        <g id="Artboard-Copy-5" transform="translate(-4.000000, -5.000000)" fill="#474649" fill-rule="nonzero">
            <g id="icn_aulas" transform="translate(4.000000, 5.000000)">
                <path d="M15.2455253,12.2880964 L8.49105064,13.9988571 C8.16877175,14.0804833 7.83122825,14.0804833 7.50894936,13.9988571 L0.754474679,12.2880964 C0.310766764,12.1757149 2.78098967e-16,11.7764248 0,11.3187062 L0,11.083892 C-5.33307413e-17,10.6484135 0.353025117,10.2953883 0.788503667,10.2953883 C0.85378653,10.2953883 0.918816717,10.3034957 0.982101283,10.3195243 L7.50894936,11.9726321 C7.83122825,12.0542583 8.16877175,12.0542583 8.49105064,11.9726321 L15.0178987,10.3195243 C15.4400473,10.2126033 15.868943,10.4681458 15.975864,10.8902944 C15.9918926,10.953579 16,11.0186092 16,11.083892 L16,11.3187062 C16,11.7764248 15.6892332,12.1757149 15.2455253,12.2880964 Z M15.2455253,8.26302793 L8.49105064,9.97378857 C8.16877175,10.0554148 7.83122825,10.0554148 7.50894936,9.97378857 L0.754474679,8.26302793 C0.310766764,8.15064643 2.78098967e-16,7.75135636 0,7.29363775 L0,7.05882353 C-5.33307413e-17,6.62334498 0.353025117,6.27031986 0.788503667,6.27031986 C0.85378653,6.27031986 0.918816717,6.27842722 0.982101283,6.29445582 L7.50894936,7.94756362 C7.83122825,8.02918981 8.16877175,8.02918981 8.49105064,7.94756362 L15.0178987,6.29445582 C15.4400473,6.18753481 15.868943,6.44307728 15.975864,6.86522591 C15.9918926,6.92851048 16,6.99354067 16,7.05882353 L16,7.29363775 C16,7.75135636 15.6892332,8.15064643 15.2455253,8.26302793 Z M15.2455253,4.23795945 L8.49105064,5.94872009 C8.16877175,6.03034628 7.83122825,6.03034628 7.50894936,5.94872009 L0.754474679,4.23795945 C0.310766764,4.12557794 5.60543619e-17,3.72628787 0,3.26856927 L0,2.79894082 C1.65990243e-16,2.34122222 0.310766764,1.94193215 0.754474679,1.82955064 L7.50894936,0.11879 C7.83122825,0.0371638078 8.16877175,0.0371638078 8.49105064,0.11879 L15.2455253,1.82955064 C15.6892332,1.94193215 16,2.34122222 16,2.79894082 L16,3.26856927 C16,3.72628787 15.6892332,4.12557794 15.2455253,4.23795945 Z" id="Shape"></path>
            </g>
        </g>
    </g>
</svg>