<?xml version="1.0" encoding="UTF-8"?>
<svg width="14px" height="16px" viewBox="0 0 14 16" version="1.1" xmlns="http://www.w3.org/2000/svg" xmlns:xlink="http://www.w3.org/1999/xlink">
    <!-- Generator: Sketch 61 (89581) - https://sketch.com -->
    <title>icn_admin</title>
    <desc>Created with Sketch.</desc>
    <g id="Page-1" stroke="none" stroke-width="1" fill="none" fill-rule="evenodd">
        <g id="Artboard-Copy-3" transform="translate(-5.000000, -4.000000)" fill="#474649" fill-rule="nonzero">
            <path d="M17.4377505,4 L6.55471881,4 C5.69184987,4 5,4.69962347 5,5.55471881 L5,16.4377505 C5,17.2928459 5.69962347,17.9924693 6.55471881,17.9924693 L9.66415644,17.9924693 L11.4443095,19.7726224 C11.7474797,20.0757925 12.2372161,20.0757925 12.5403863,19.7726224 L14.3283129,17.9924693 L17.4377505,17.9924693 C18.2928459,17.9924693 18.9924693,17.2928459 18.9924693,16.4377505 L18.9924693,5.55471881 C18.9924693,4.69962347 18.2928459,4 17.4377505,4 Z M11.9962347,6.56528604 C13.1545002,6.56528604 14.0951051,7.50589093 14.0951051,8.66415644 C14.0951051,9.82242196 13.1545002,10.7630268 11.9962347,10.7630268 C10.8379691,10.7630268 9.89736427,9.82242196 9.89736427,8.66415644 C9.89736427,7.50589093 10.8379691,6.56528604 11.9962347,6.56528604 Z M16.6603911,14.8830317 L7.33207822,14.8830317 L7.33207822,14.1834082 C7.33207822,12.6286894 10.4415159,11.7735941 11.9962347,11.7735941 C13.5509535,11.7735941 16.6603911,12.6286894 16.6603911,14.1834082 L16.6603911,14.8830317 Z" id="icn_admin"></path>
        </g>
    </g>
</svg>