<svg xmlns="http://www.w3.org/2000/svg" width="14" height="19" viewBox="0 0 14 19">
    <path fill="#455862" fill-rule="nonzero" d="M12.704 7.321h-.346V5.668c0-3.058-2.38-5.612-5.353-5.667a11.805 11.805 0 0 0-.325 0c-2.974.055-5.353 2.61-5.353 5.667v1.653H.981c-.534 0-.97.562-.97 1.256v8.293c0 .693.436 1.26.97 1.26h11.723c.534 0 .97-.567.97-1.26V8.577c0-.694-.436-1.256-.97-1.256zm-4.763 5.394v2.506a.53.53 0 0 1-.517.53H6.26a.53.53 0 0 1-.517-.53v-2.506a1.506 1.506 0 0 1-.432-1.073c0-.794.602-1.477 1.368-1.509.081-.003.244-.003.325 0 .766.032 1.368.715 1.368 1.51 0 .419-.16.798-.432 1.072zm2.134-5.394H3.61V5.668c0-1.821 1.451-3.328 3.233-3.328 1.78 0 3.232 1.507 3.232 3.328v1.653z"/>
</svg>
