<svg xmlns="http://www.w3.org/2000/svg" width="15" height="14" viewBox="0 0 15 14">
    <g fill="#474649" opacity=".87">
        <path d="M1.416 13.636h7.396c.782 0 1.415-.61 1.415-1.363v-1.364c0-.376-.317-.682-.707-.682-.391 0-.708.306-.708.682v1.364H1.416V1.363h7.396v1.364c0 .377.317.682.708.682.39 0 .707-.305.707-.682V1.364C10.227.61 9.594 0 8.812 0H1.416C.634 0 0 .61 0 1.364v10.909c0 .753.634 1.363 1.416 1.363z"/>
        <path d="M11.983 3.605c-.271-.264-.707-.26-.974.006-.267.267-.264.697.007.96L12.63 6.14H7.507c-.38 0-.689.304-.689.678 0 .375.308.679.689.679h5.124l-1.614 1.568c-.27.263-.274.693-.007.96s.704.27.974.007l2.81-2.73C14.927 7.174 15 7 15 6.818s-.074-.356-.205-.483l-2.812-2.73z"/>
    </g>
</svg>
