<?xml version="1.0" encoding="UTF-8"?>
<svg width="16px" height="15px" viewBox="0 0 16 15" version="1.1" xmlns="http://www.w3.org/2000/svg" xmlns:xlink="http://www.w3.org/1999/xlink">
    <!-- Generator: Sketch 63.1 (92452) - https://sketch.com -->
    <title>icn_macrothems</title>
    <desc>Created with Sketch.</desc>
    <g id="Page-1" stroke="none" stroke-width="1" fill="none" fill-rule="evenodd">
        <g id="[Unidades]-Cadastrar-" transform="translate(-19.000000, -946.000000)" fill="#474649" fill-rule="nonzero">
            <g id="icn_macrothems" transform="translate(19.000000, 946.000000)">
                <path d="M15.790435,2.04107941 C15.8667102,1.94700663 16.1794387,1.63173577 15.8362004,1.53512027 L8.03070148,0.0528384615 L0.921850544,7.39051545 L8.9892271,9.84149247 L15.790435,2.04107941 Z M12.2716049,3.36826814 L11.8571762,3.91490761 L7.17896211,2.74281155 L7.66203815,2.24956492 L12.2716049,3.36826814 Z" id="Shape"></path>
                <path d="M0.405721621,8.08207742 C0.103163118,8.86262708 -0.0570148513,9.58469959 0.0294304821,10.2152413 C0.118418174,10.8839205 0.4997944,11.4763246 1.3108544,11.9619438 L9.31975301,14.3061351 L15.7878919,6.50826556 C15.5844914,5.81670281 15.4675371,4.5632465 15.490419,3.62251947 L9.42908107,10.5737352 C9.31466833,10.703402 9.13923528,10.7440827 8.98668494,10.6906895 L0.405721621,8.08207742 Z" id="Path"></path>
            </g>
        </g>
    </g>
</svg>