<svg xmlns="http://www.w3.org/2000/svg" width="12" height="12" viewBox="0 0 12 12">
    <g fill="none" fill-rule="evenodd">
        <path d="M-7-6h24v24H-7z"/>
        <path fill="#474649" fill-rule="nonzero" d="M.31.71a.996.996 0 0 0 0 1.41l3.173 3.173a1 1 0 0 1 0 1.414L.31 9.88a.996.996 0 1 0 1.41 1.41L6.31 6.7a.996.996 0 0 0 0-1.41L1.72.7C1.34.32.7.32.31.71z"/>
        <path fill="#474649" fill-rule="nonzero" d="M5.31.71a.996.996 0 0 0 0 1.41l3.173 3.173a1 1 0 0 1 0 1.414L5.31 9.88a.996.996 0 1 0 1.41 1.41l4.59-4.59a.996.996 0 0 0 0-1.41L6.72.7C6.34.32 5.7.32 5.31.71z"/>
    </g>
</svg>
