<svg xmlns="http://www.w3.org/2000/svg" width="12" height="12" viewBox="0 0 12 12">
    <g fill="none" fill-rule="evenodd">
        <path d="M19-6H-5v24h24z"/>
        <path fill="#474649" fill-rule="nonzero" d="M11.69.71c.39.39.39 1.02 0 1.41L8.517 5.293a1 1 0 0 0 0 1.414L11.69 9.88a.996.996 0 1 1-1.41 1.41L5.69 6.7a.996.996 0 0 1 0-1.41L10.28.7c.38-.38 1.02-.38 1.41.01z"/>
        <path fill="#474649" fill-rule="nonzero" d="M6.69.71c.39.39.39 1.02 0 1.41L3.517 5.293a1 1 0 0 0 0 1.414L6.69 9.88a.996.996 0 1 1-1.41 1.41L.69 6.7a.996.996 0 0 1 0-1.41L5.28.7C5.66.32 6.3.32 6.69.71z"/>
    </g>
</svg>
