<?xml version="1.0" encoding="UTF-8"?>
<svg width="20px" height="14px" viewBox="0 0 20 14" version="1.1" xmlns="http://www.w3.org/2000/svg" xmlns:xlink="http://www.w3.org/1999/xlink">
    <!-- Generator: Sketch 61 (89581) - https://sketch.com -->
    <title>icn_professor</title>
    <desc>Created with Sketch.</desc>
    <g id="Page-1" stroke="none" stroke-width="1" fill="none" fill-rule="evenodd">
        <g id="Artboard-Copy-4" transform="translate(-2.000000, -5.000000)" fill="#474649" fill-rule="nonzero">
            <g id="icn_professor" transform="translate(2.000000, 5.000000)">
                <g transform="translate(0.000000, 0.727273)" id="Path">
                    <path d="M1.13122406,3.62813561 L9.62136715,0.154895255 C9.86402893,0.05562453 10.1359711,0.05562453 10.3786328,0.154895255 L18.8687759,3.62813561 C19.1243587,3.73269219 19.2467896,4.02464278 19.142233,4.28022551 C19.0914482,4.40436617 18.9929166,4.50289776 18.8687759,4.55368257 L10,8.18181818 L10,8.18181818 L1.13122406,4.55368257 C0.875641323,4.449126 0.753210429,4.1571754 0.857767002,3.90159267 C0.908551815,3.77745202 1.0070834,3.67892043 1.13122406,3.62813561 Z"></path>
                    <path d="M9.60159234,9.46896088 L5.24465837,7.57644031 C4.99137825,7.46642307 4.69686756,7.58256058 4.58685032,7.8358407 C4.55954481,7.89870307 4.54545455,7.96650791 4.54545455,8.03504453 L4.54545455,10.9201348 C4.54548233,11.1030767 4.64539863,11.2714113 4.80599275,11.3590314 C6.47784338,12.2711923 8.20917913,12.7272727 10,12.7272727 C11.7908305,12.7272727 13.5221752,12.2711874 15.1940342,11.3590167 C15.3546266,11.2713828 15.4545455,11.1030433 15.4545455,10.9200963 L15.4545455,8.03504453 C15.4545455,7.75890215 15.2306878,7.53504453 14.9545455,7.53504453 C14.8860088,7.53504453 14.818204,7.54913479 14.7553416,7.57644031 L10.3984077,9.46896088 C10.1442723,9.57934961 9.85572772,9.57934961 9.60159234,9.46896088 Z"></path>
                </g>
            </g>
        </g>
    </g>
</svg>