<svg xmlns="http://www.w3.org/2000/svg" width="95" height="43" viewBox="0 0 95 43">
    <g fill="#455862" fill-rule="nonzero">
        <path d="M24.01 8.49H1.92c-.926 0-1.676.748-1.676 1.672 0 .924.75 1.672 1.676 1.672H24.01c.927 0 1.677-.748 1.677-1.672 0-.924-.75-1.672-1.677-1.672zM24.01 32.361H1.92a1.674 1.674 0 0 0 0 3.345H24.01c.927 0 1.677-.748 1.677-1.672 0-.924-.75-1.673-1.677-1.673zM24.01 20.16H10.535c-.926 0-1.676.749-1.676 1.672 0 .923.75 1.672 1.676 1.672H24.01c.927 0 1.677-.749 1.677-1.672 0-.923-.75-1.672-1.677-1.672zM90.646.557h-56.84a4.182 4.182 0 0 0-4.183 4.172v33.675c0 1.214.531 2.3 1.364 3.06.048.043.095.087.146.121.727.609 1.65.99 2.672.99h56.842c1.018 0 1.941-.38 2.668-.988.058-.039.11-.087.163-.133a4.145 4.145 0 0 0 1.349-3.05V4.73A4.183 4.183 0 0 0 90.646.557zm-57.67 5.407l17.517 15.603L32.975 37.17V5.964zM62.223 27.53L35.695 3.902h53.062L62.224 27.531zm-9.213-3.722l8.096 7.211c.014.013.03.016.045.027.14.117.294.211.457.276.027.01.054.017.08.025.172.058.35.095.53.096H62.228c.18-.001.358-.038.53-.096.027-.009.054-.015.08-.025.164-.065.317-.159.458-.276.014-.012.031-.015.044-.027l8.099-7.212L88.755 39.23h-53.06l17.316-15.42zm20.945-2.243l17.517-15.6v31.202L73.956 21.566z"/>
    </g>
</svg>
