<?xml version="1.0" encoding="UTF-8"?>
<svg width="16px" height="15px" viewBox="0 0 16 15" version="1.1" xmlns="http://www.w3.org/2000/svg" xmlns:xlink="http://www.w3.org/1999/xlink">
    <!-- Generator: Sketch 61 (89581) - https://sketch.com -->
    <title>icn_conteudos</title>
    <desc>Created with Sketch.</desc>
    <g id="Page-1" stroke="none" stroke-width="1" fill="none" fill-rule="evenodd">
        <g id="Artboard-Copy-2" transform="translate(-4.000000, -5.000000)" fill="#474649">
            <g id="icn_conteudos" transform="translate(4.000000, 5.000000)">
                <g id="Group">
                    <path d="M1.56862745,0 L14.4313725,0 C15.2679739,0 16,0.64516129 16,1.38248848 L16,10.0460829 C16,10.7834101 15.2679739,11.4285714 14.4313725,11.4285714 L1.56862745,11.4285714 C0.732026144,11.4285714 0,10.7834101 0,10.0460829 L0,1.38248848 C0,0.64516129 0.732026144,0 1.56862745,0 Z" id="Path"></path>
                    <path d="M4.28339141,12.5714286 L11.7166086,12.5714286 L11.7166086,13.7142857 L12.0139373,13.7142857 C12.757259,13.7142857 12.757259,14.8571429 12.0139373,14.8571429 L3.98606272,14.8571429 C3.242741,14.8571429 3.242741,13.7142857 3.98606272,13.7142857 L4.28339141,13.7142857 L4.28339141,12.5714286 Z" id="Path"></path>
                </g>
            </g>
        </g>
    </g>
</svg>
